<svg version="1.1" id="Layer_1" xmlns="http://www.w3.org/2000/svg" xmlns:xlink="http://www.w3.org/1999/xlink" x="0px" y="0px"
	 width="100%" viewBox="0 0 1199 657" enable-background="new 0 0 1199 657" xml:space="preserve">
<path fill="#131F31" opacity="1.000000" stroke="none" 
	d="
M697.000000,658.000000 
	C464.666687,658.000000 232.833359,658.000000 1.000031,658.000000 
	C1.000021,439.000031 1.000021,220.000061 1.000010,1.000061 
	C400.666626,1.000040 800.333252,1.000040 1200.000000,1.000020 
	C1200.000000,219.999939 1200.000000,438.999878 1200.000000,657.999878 
	C1032.500000,658.000000 865.000000,658.000000 697.000000,658.000000 
M538.877258,512.138611 
	C556.684692,502.814880 572.374329,490.547302 586.915161,476.881042 
	C595.155029,483.716980 602.729919,490.474182 610.791260,496.590179 
	C627.368103,509.166595 644.995544,519.710510 665.928650,523.527344 
	C687.427490,527.447388 705.193359,518.781372 713.356140,498.651276 
	C717.181763,489.217224 719.655090,478.934296 720.883667,468.810669 
	C723.395325,448.112457 720.712769,427.570374 715.991821,407.339600 
	C715.089417,403.472595 715.808472,401.862000 719.783630,400.596924 
	C728.183777,397.923523 736.534241,394.933350 744.583374,391.350464 
	C763.266724,383.033936 780.847473,373.000061 794.398865,357.112335 
	C809.656799,339.223785 810.316345,319.448364 795.419556,301.289948 
	C790.612854,295.430847 784.821716,290.182404 778.782837,285.568207 
	C760.942139,271.936493 740.463135,263.527405 719.157104,257.038269 
	C715.465515,255.913925 714.216919,254.581802 715.005066,250.437836 
	C717.149780,239.162018 719.229309,227.821472 720.322327,216.409637 
	C722.196777,196.838745 721.204712,177.465225 713.494507,158.937515 
	C706.472046,142.062286 693.214539,132.434357 675.141235,133.421860 
	C665.848267,133.929626 656.325684,136.279968 647.580811,139.582458 
	C625.738098,147.831421 607.678406,162.156311 590.763550,177.896210 
	C587.576172,180.862091 585.807861,180.707001 582.611267,177.891830 
	C574.871826,171.075790 566.945862,164.401306 558.588501,158.371872 
	C541.823364,146.276489 523.864075,136.607010 502.937775,133.780930 
	C484.691467,131.316788 470.383240,138.155899 461.324951,154.052521 
	C454.554962,165.933426 452.486206,179.098602 451.811676,192.502991 
	C450.849762,211.618378 453.318298,230.425644 457.786255,248.966827 
	C458.917328,253.660629 457.717743,255.549713 453.029663,257.148560 
	C441.071777,261.226715 429.140411,265.560150 417.647919,270.780945 
	C403.000763,277.434875 389.628204,286.245514 379.009949,298.623108 
	C368.932526,310.370270 363.388855,323.523773 368.177002,339.172821 
	C371.430725,349.807098 378.138794,358.319153 386.268463,365.706940 
	C405.690247,383.356262 428.982117,393.844391 453.692596,401.480865 
	C458.055603,402.829163 458.626862,404.745026 457.786652,408.666077 
	C456.077545,416.642059 454.436920,424.656616 453.325104,432.731964 
	C450.529297,453.038300 450.167816,473.266724 456.822540,493.046844 
	C464.799133,516.755920 482.739288,527.973145 507.146545,523.034424 
	C517.779480,520.882935 527.871521,516.058228 538.877258,512.138611 
z"/>
<path fill="#4DD2F8" opacity="1.000000" stroke="none" 
	d="
M538.543213,512.293091 
	C527.871521,516.058228 517.779480,520.882935 507.146545,523.034424 
	C482.739288,527.973145 464.799133,516.755920 456.822540,493.046844 
	C450.167816,473.266724 450.529297,453.038300 453.325104,432.731964 
	C454.436920,424.656616 456.077545,416.642059 457.786652,408.666077 
	C458.626862,404.745026 458.055603,402.829163 453.692596,401.480865 
	C428.982117,393.844391 405.690247,383.356262 386.268463,365.706940 
	C378.138794,358.319153 371.430725,349.807098 368.177002,339.172821 
	C363.388855,323.523773 368.932526,310.370270 379.009949,298.623108 
	C389.628204,286.245514 403.000763,277.434875 417.647919,270.780945 
	C429.140411,265.560150 441.071777,261.226715 453.029663,257.148560 
	C457.717743,255.549713 458.917328,253.660629 457.786255,248.966827 
	C453.318298,230.425644 450.849762,211.618378 451.811676,192.502991 
	C452.486206,179.098602 454.554962,165.933426 461.324951,154.052521 
	C470.383240,138.155899 484.691467,131.316788 502.937775,133.780930 
	C523.864075,136.607010 541.823364,146.276489 558.588501,158.371872 
	C566.945862,164.401306 574.871826,171.075790 582.611267,177.891830 
	C585.807861,180.707001 587.576172,180.862091 590.763550,177.896210 
	C607.678406,162.156311 625.738098,147.831421 647.580811,139.582458 
	C656.325684,136.279968 665.848267,133.929626 675.141235,133.421860 
	C693.214539,132.434357 706.472046,142.062286 713.494507,158.937515 
	C721.204712,177.465225 722.196777,196.838745 720.322327,216.409637 
	C719.229309,227.821472 717.149780,239.162018 715.005066,250.437836 
	C714.216919,254.581802 715.465515,255.913925 719.157104,257.038269 
	C740.463135,263.527405 760.942139,271.936493 778.782837,285.568207 
	C784.821716,290.182404 790.612854,295.430847 795.419556,301.289948 
	C810.316345,319.448364 809.656799,339.223785 794.398865,357.112335 
	C780.847473,373.000061 763.266724,383.033936 744.583374,391.350464 
	C736.534241,394.933350 728.183777,397.923523 719.783630,400.596924 
	C715.808472,401.862000 715.089417,403.472595 715.991821,407.339600 
	C720.712769,427.570374 723.395325,448.112457 720.883667,468.810669 
	C719.655090,478.934296 717.181763,489.217224 713.356140,498.651276 
	C705.193359,518.781372 687.427490,527.447388 665.928650,523.527344 
	C644.995544,519.710510 627.368103,509.166595 610.791260,496.590179 
	C602.729919,490.474182 595.155029,483.716980 586.915161,476.881042 
	C572.374329,490.547302 556.684692,502.814880 538.543213,512.293091 
M679.744263,355.734741 
	C679.345215,355.075439 678.946167,354.416107 678.047913,353.038025 
	C676.927185,353.301971 675.806519,353.565887 674.124329,354.103973 
	C673.869751,354.850250 673.615173,355.596497 673.097778,356.989502 
	C666.013489,369.516998 658.929138,382.044464 651.751709,394.736633 
	C652.753296,395.020874 653.248718,395.330017 653.683167,395.260162 
	C665.182739,393.410980 676.680420,391.549011 688.167664,389.625092 
	C691.629028,389.045410 691.181946,386.812225 690.245117,384.356750 
	C686.684387,375.024139 683.170776,365.673553 679.744263,355.734741 
M603.494202,399.218353 
	C609.981873,398.907471 616.499023,398.859375 622.940430,398.136139 
	C625.053711,397.898804 627.815247,396.405853 628.847839,394.646362 
	C640.894287,374.120087 652.623291,353.407867 664.557983,332.815399 
	C666.377441,329.675995 666.247314,327.010010 664.470886,323.980988 
	C652.514099,303.592743 640.704529,283.117523 628.605408,262.814575 
	C627.539856,261.026520 624.751587,259.214294 622.747498,259.196320 
	C598.613586,258.979919 574.475769,259.016510 550.342163,259.281403 
	C548.286682,259.303955 545.374878,260.914490 544.345398,262.661926 
	C532.097473,283.451508 520.068359,304.371582 508.211121,325.386749 
	C507.261047,327.070618 507.157806,330.190765 508.089661,331.832733 
	C520.080566,352.961517 532.260864,373.984619 544.646484,394.884369 
	C545.671936,396.614655 548.505005,398.193756 550.547119,398.256775 
	C567.857117,398.790741 585.178467,398.956268 603.494202,399.218353 
M471.083069,293.543945 
	C469.333557,288.511414 467.282379,283.558502 465.926971,278.421967 
	C464.777527,274.065765 462.609772,273.175934 458.702484,274.762695 
	C446.531525,279.705170 434.064117,284.014587 422.222137,289.643433 
	C409.990173,295.457733 398.879242,303.197174 390.701263,314.403046 
	C384.102600,323.444946 383.309906,331.698944 389.863770,340.709137 
	C394.496155,347.077759 400.196289,352.961426 406.374542,357.856537 
	C421.851440,370.119080 439.999695,377.268799 458.572937,383.478149 
	C462.785675,384.886536 464.265198,383.893982 465.748047,379.862488 
	C471.607056,363.933380 477.979767,348.193451 483.873779,332.276642 
	C484.683411,330.090210 484.535370,327.051514 483.696259,324.837250 
	C479.803772,314.565308 475.511383,304.444885 471.083069,293.543945 
M492.174164,504.842255 
	C500.020782,503.815735 508.236206,503.933838 515.644409,501.546661 
	C537.305359,494.566711 554.761414,480.622711 571.429138,465.624207 
	C574.274536,463.063782 572.522644,461.491364 570.867432,459.458466 
	C560.161011,446.308929 549.617615,433.025085 538.770996,419.993164 
	C537.167297,418.066376 534.371460,416.424408 531.908142,416.034454 
	C514.994812,413.356995 498.012512,411.118073 481.080444,408.553162 
	C478.190491,408.115387 476.717529,408.618073 476.184723,411.641876 
	C474.943878,418.684143 473.252625,425.656555 472.245911,432.728760 
	C469.720459,450.470276 468.821411,468.251007 474.233337,485.657318 
	C476.965485,494.444641 481.139038,502.401489 492.174164,504.842255 
M703.033569,454.498596 
	C701.329895,440.318756 699.597107,426.142303 697.941833,411.956818 
	C697.501709,408.184631 695.998962,407.140686 691.981384,407.817535 
	C675.098083,410.661865 658.126038,412.977417 641.228638,415.743713 
	C639.048645,416.100586 636.532043,417.490723 635.158691,419.196991 
	C624.316406,432.667725 613.810669,446.409515 602.956726,459.870636 
	C600.768311,462.584778 601.252686,464.064941 603.547729,465.977142 
	C609.679749,471.086334 615.569031,476.504242 621.882935,481.374115 
	C634.199158,490.873566 647.393616,498.870117 662.441406,503.399536 
	C682.018921,509.292419 693.500488,503.639374 698.940552,483.999603 
	C701.484070,474.817200 701.739502,465.001038 703.033569,454.498596 
M472.513397,225.795593 
	C473.809082,232.668640 475.172516,239.529938 476.368134,246.420349 
	C476.868805,249.305756 478.079407,250.245819 481.131744,249.749146 
	C498.055481,246.995209 515.029480,244.546219 531.936462,241.697601 
	C534.278198,241.303040 536.926086,239.753967 538.444702,237.921127 
	C549.274170,224.850845 559.767639,211.502457 570.567261,198.406799 
	C572.796204,195.703918 572.654114,194.142593 570.125183,191.861664 
	C557.586914,180.553085 544.392151,170.155457 529.380432,162.300476 
	C518.683777,156.703323 507.615204,152.188354 495.191589,152.437225 
	C487.506073,152.591171 481.770782,156.018387 478.121429,162.717667 
	C476.617004,165.479385 475.295288,168.411865 474.390320,171.417191 
	C469.078583,189.056946 469.928253,206.962662 472.513397,225.795593 
M639.102173,164.515732 
	C627.098755,173.695999 615.099731,182.882019 603.088257,192.051773 
	C600.617737,193.937851 600.450623,195.545975 602.599304,198.166611 
	C613.247803,211.153961 623.537476,224.436493 634.253296,237.366623 
	C636.038940,239.521194 639.151855,241.324173 641.909302,241.802063 
	C658.295593,244.642090 674.780396,246.911240 691.177185,249.695663 
	C694.871582,250.323044 696.422607,249.473602 696.923035,245.868805 
	C698.569275,234.010254 700.944641,222.215012 701.875061,210.304474 
	C703.061157,195.121323 702.111511,179.963333 695.749207,165.732712 
	C690.906555,154.900940 684.097412,151.034256 672.300049,152.190247 
	C660.425720,153.353790 649.952698,158.416840 639.102173,164.515732 
M786.526733,333.513123 
	C788.493958,327.665161 787.329163,322.105988 783.859375,317.384766 
	C780.345581,312.603638 776.468323,307.892609 771.971558,304.065918 
	C754.774536,289.431427 734.143066,281.449890 712.994751,274.582489 
	C709.987915,273.606049 708.689209,274.435181 707.532043,277.502869 
	C701.547424,293.368652 695.181152,309.090393 689.168335,324.945984 
	C688.434143,326.881927 688.362854,329.576019 689.103271,331.484741 
	C695.416748,347.759125 702.035400,363.914795 708.436951,380.155548 
	C709.480652,382.803345 710.632385,383.855957 713.613342,382.891174 
	C732.227112,376.866669 750.188965,369.431091 766.059143,357.791992 
	C774.534851,351.575897 782.413635,344.603455 786.526733,333.513123 
M570.444824,430.077484 
	C575.799805,436.371460 581.154724,442.665436 587.339111,449.934326 
	C596.058411,439.165253 604.182129,429.131683 613.003479,418.236572 
	C595.039429,418.236572 578.731201,418.236572 561.158325,418.236572 
	C564.553284,422.589478 567.264893,426.066132 570.444824,430.077484 
M510.726807,394.763092 
	C514.139221,395.095703 517.551697,395.428314 522.008057,395.862640 
	C513.262573,380.782471 505.051331,366.623444 496.840027,352.464386 
	C496.324066,352.461639 495.808075,352.458923 495.292084,352.456177 
	C491.207062,364.003510 487.054901,375.528625 483.205994,387.154114 
	C482.978271,387.841980 485.034271,390.073761 486.289001,390.335999 
	C494.101379,391.968689 501.988312,393.244446 510.726807,394.763092 
M662.718506,281.805359 
	C667.178955,289.622284 671.639404,297.439178 676.099854,305.256104 
	C676.650452,305.241455 677.201050,305.226776 677.751648,305.212128 
	C681.779053,293.854950 685.874023,282.520111 689.662842,271.083862 
	C689.885437,270.411743 687.804260,268.241241 686.513733,267.928162 
	C680.383850,266.441071 674.180420,265.212524 667.956177,264.173187 
	C662.828674,263.316956 657.635315,262.854767 651.001465,262.036743 
	C655.318970,269.308655 658.839172,275.237732 662.718506,281.805359 
M519.902344,262.346191 
	C508.930267,264.107574 497.968842,265.939758 486.980469,267.592865 
	C482.999878,268.191742 482.612244,270.033752 483.912231,273.450165 
	C487.041168,281.673309 489.849396,290.017914 492.905609,298.269623 
	C493.779388,300.628723 495.058990,302.837494 496.279419,305.379547 
	C497.220825,304.528290 497.684204,304.272919 497.910797,303.880737 
	C505.219635,291.230957 512.522156,278.577362 519.760620,265.887268 
	C520.282959,264.971466 520.313782,263.775360 519.902344,262.346191 
M595.707397,218.777695 
	C592.834351,215.484100 589.961304,212.190521 586.479736,208.199310 
	C577.625122,218.805542 569.550964,228.476898 560.716553,239.058868 
	C578.632751,239.058868 594.775391,239.058868 612.314453,239.058868 
	C606.411316,231.844284 601.287415,225.582077 595.707397,218.777695 
z"/>
<path fill="#132335" opacity="1.000000" stroke="none" 
	d="
M602.995300,399.225342 
	C585.178467,398.956268 567.857117,398.790741 550.547119,398.256775 
	C548.505005,398.193756 545.671936,396.614655 544.646484,394.884369 
	C532.260864,373.984619 520.080566,352.961517 508.089661,331.832733 
	C507.157806,330.190765 507.261047,327.070618 508.211121,325.386749 
	C520.068359,304.371582 532.097473,283.451508 544.345398,262.661926 
	C545.374878,260.914490 548.286682,259.303955 550.342163,259.281403 
	C574.475769,259.016510 598.613586,258.979919 622.747498,259.196320 
	C624.751587,259.214294 627.539856,261.026520 628.605408,262.814575 
	C640.704529,283.117523 652.514099,303.592743 664.470886,323.980988 
	C666.247314,327.010010 666.377441,329.675995 664.557983,332.815399 
	C652.623291,353.407867 640.894287,374.120087 628.847839,394.646362 
	C627.815247,396.405853 625.053711,397.898804 622.940430,398.136139 
	C616.499023,398.859375 609.981873,398.907471 602.995300,399.225342 
M597.630981,290.615387 
	C596.658264,290.388580 595.688049,290.150452 594.712463,289.936676 
	C579.003052,286.494598 562.674805,293.143616 553.825134,306.583344 
	C544.728577,320.398010 545.005066,338.114441 554.520935,351.178162 
	C564.155945,364.405396 580.974915,370.390564 596.584229,366.146820 
	C613.224792,361.622681 624.749451,347.347229 625.599976,330.205292 
	C626.483948,312.389740 616.106567,297.377136 597.630981,290.615387 
z"/>
<path fill="#132234" opacity="1.000000" stroke="none" 
	d="
M471.222595,293.907104 
	C475.511383,304.444885 479.803772,314.565308 483.696259,324.837250 
	C484.535370,327.051514 484.683411,330.090210 483.873779,332.276642 
	C477.979767,348.193451 471.607056,363.933380 465.748047,379.862488 
	C464.265198,383.893982 462.785675,384.886536 458.572937,383.478149 
	C439.999695,377.268799 421.851440,370.119080 406.374542,357.856537 
	C400.196289,352.961426 394.496155,347.077759 389.863770,340.709137 
	C383.309906,331.698944 384.102600,323.444946 390.701263,314.403046 
	C398.879242,303.197174 409.990173,295.457733 422.222137,289.643433 
	C434.064117,284.014587 446.531525,279.705170 458.702484,274.762695 
	C462.609772,273.175934 464.777527,274.065765 465.926971,278.421967 
	C467.282379,283.558502 469.333557,288.511414 471.222595,293.907104 
z"/>
<path fill="#132234" opacity="1.000000" stroke="none" 
	d="
M491.751038,504.781921 
	C481.139038,502.401489 476.965485,494.444641 474.233337,485.657318 
	C468.821411,468.251007 469.720459,450.470276 472.245911,432.728760 
	C473.252625,425.656555 474.943878,418.684143 476.184723,411.641876 
	C476.717529,408.618073 478.190491,408.115387 481.080444,408.553162 
	C498.012512,411.118073 514.994812,413.356995 531.908142,416.034454 
	C534.371460,416.424408 537.167297,418.066376 538.770996,419.993164 
	C549.617615,433.025085 560.161011,446.308929 570.867432,459.458466 
	C572.522644,461.491364 574.274536,463.063782 571.429138,465.624207 
	C554.761414,480.622711 537.305359,494.566711 515.644409,501.546661 
	C508.236206,503.933838 500.020782,503.815735 491.751038,504.781921 
z"/>
<path fill="#142234" opacity="1.000000" stroke="none" 
	d="
M703.032776,454.985352 
	C701.739502,465.001038 701.484070,474.817200 698.940552,483.999603 
	C693.500488,503.639374 682.018921,509.292419 662.441406,503.399536 
	C647.393616,498.870117 634.199158,490.873566 621.882935,481.374115 
	C615.569031,476.504242 609.679749,471.086334 603.547729,465.977142 
	C601.252686,464.064941 600.768311,462.584778 602.956726,459.870636 
	C613.810669,446.409515 624.316406,432.667725 635.158691,419.196991 
	C636.532043,417.490723 639.048645,416.100586 641.228638,415.743713 
	C658.126038,412.977417 675.098083,410.661865 691.981384,407.817535 
	C695.998962,407.140686 697.501709,408.184631 697.941833,411.956818 
	C699.597107,426.142303 701.329895,440.318756 703.032776,454.985352 
z"/>
<path fill="#132235" opacity="1.000000" stroke="none" 
	d="
M472.442535,225.354736 
	C469.928253,206.962662 469.078583,189.056946 474.390320,171.417191 
	C475.295288,168.411865 476.617004,165.479385 478.121429,162.717667 
	C481.770782,156.018387 487.506073,152.591171 495.191589,152.437225 
	C507.615204,152.188354 518.683777,156.703323 529.380432,162.300476 
	C544.392151,170.155457 557.586914,180.553085 570.125183,191.861664 
	C572.654114,194.142593 572.796204,195.703918 570.567261,198.406799 
	C559.767639,211.502457 549.274170,224.850845 538.444702,237.921127 
	C536.926086,239.753967 534.278198,241.303040 531.936462,241.697601 
	C515.029480,244.546219 498.055481,246.995209 481.131744,249.749146 
	C478.079407,250.245819 476.868805,249.305756 476.368134,246.420349 
	C475.172516,239.529938 473.809082,232.668640 472.442535,225.354736 
z"/>
<path fill="#132234" opacity="1.000000" stroke="none" 
	d="
M639.424683,164.340088 
	C649.952698,158.416840 660.425720,153.353790 672.300049,152.190247 
	C684.097412,151.034256 690.906555,154.900940 695.749207,165.732712 
	C702.111511,179.963333 703.061157,195.121323 701.875061,210.304474 
	C700.944641,222.215012 698.569275,234.010254 696.923035,245.868805 
	C696.422607,249.473602 694.871582,250.323044 691.177185,249.695663 
	C674.780396,246.911240 658.295593,244.642090 641.909302,241.802063 
	C639.151855,241.324173 636.038940,239.521194 634.253296,237.366623 
	C623.537476,224.436493 613.247803,211.153961 602.599304,198.166611 
	C600.450623,195.545975 600.617737,193.937851 603.088257,192.051773 
	C615.099731,182.882019 627.098755,173.695999 639.424683,164.340088 
z"/>
<path fill="#132234" opacity="1.000000" stroke="none" 
	d="
M786.392334,333.902435 
	C782.413635,344.603455 774.534851,351.575897 766.059143,357.791992 
	C750.188965,369.431091 732.227112,376.866669 713.613342,382.891174 
	C710.632385,383.855957 709.480652,382.803345 708.436951,380.155548 
	C702.035400,363.914795 695.416748,347.759125 689.103271,331.484741 
	C688.362854,329.576019 688.434143,326.881927 689.168335,324.945984 
	C695.181152,309.090393 701.547424,293.368652 707.532043,277.502869 
	C708.689209,274.435181 709.987915,273.606049 712.994751,274.582489 
	C734.143066,281.449890 754.774536,289.431427 771.971558,304.065918 
	C776.468323,307.892609 780.345581,312.603638 783.859375,317.384766 
	C787.329163,322.105988 788.493958,327.665161 786.392334,333.902435 
z"/>
<path fill="#142A3D" opacity="1.000000" stroke="none" 
	d="
M570.210632,429.810120 
	C567.264893,426.066132 564.553284,422.589478 561.158325,418.236572 
	C578.731201,418.236572 595.039429,418.236572 613.003479,418.236572 
	C604.182129,429.131683 596.058411,439.165253 587.339111,449.934326 
	C581.154724,442.665436 575.799805,436.371460 570.210632,429.810120 
z"/>
<path fill="#14293D" opacity="1.000000" stroke="none" 
	d="
M674.685791,353.829834 
	C675.806519,353.565887 676.927185,353.301971 678.231323,353.696716 
	C678.823059,355.013489 679.231323,355.671570 679.639648,356.329651 
	C683.170776,365.673553 686.684387,375.024139 690.245117,384.356750 
	C691.181946,386.812225 691.629028,389.045410 688.167664,389.625092 
	C676.680420,391.549011 665.182739,393.410980 653.683167,395.260162 
	C653.248718,395.330017 652.753296,395.020874 651.751709,394.736633 
	C658.929138,382.044464 666.013489,369.516998 673.503418,356.526062 
	C674.168030,355.318390 674.426941,354.574127 674.685791,353.829834 
z"/>
<path fill="#13293D" opacity="1.000000" stroke="none" 
	d="
M510.288696,394.700806 
	C501.988312,393.244446 494.101379,391.968689 486.289001,390.335999 
	C485.034271,390.073761 482.978271,387.841980 483.205994,387.154114 
	C487.054901,375.528625 491.207062,364.003510 495.292084,352.456177 
	C495.808075,352.458923 496.324066,352.461639 496.840027,352.464386 
	C505.051331,366.623444 513.262573,380.782471 522.008057,395.862640 
	C517.551697,395.428314 514.139221,395.095703 510.288696,394.700806 
z"/>
<path fill="#15293D" opacity="1.000000" stroke="none" 
	d="
M662.538940,281.486084 
	C658.839172,275.237732 655.318970,269.308655 651.001465,262.036743 
	C657.635315,262.854767 662.828674,263.316956 667.956177,264.173187 
	C674.180420,265.212524 680.383850,266.441071 686.513733,267.928162 
	C687.804260,268.241241 689.885437,270.411743 689.662842,271.083862 
	C685.874023,282.520111 681.779053,293.854950 677.751648,305.212128 
	C677.201050,305.226776 676.650452,305.241455 676.099854,305.256104 
	C671.639404,297.439178 667.178955,289.622284 662.538940,281.486084 
z"/>
<path fill="#152B3D" opacity="1.000000" stroke="none" 
	d="
M520.237793,262.527893 
	C520.313782,263.775360 520.282959,264.971466 519.760620,265.887268 
	C512.522156,278.577362 505.219635,291.230957 497.910797,303.880737 
	C497.684204,304.272919 497.220825,304.528290 496.279419,305.379547 
	C495.058990,302.837494 493.779388,300.628723 492.905609,298.269623 
	C489.849396,290.017914 487.041168,281.673309 483.912231,273.450165 
	C482.612244,270.033752 482.999878,268.191742 486.980469,267.592865 
	C497.968842,265.939758 508.930267,264.107574 520.237793,262.527893 
z"/>
<path fill="#13293C" opacity="1.000000" stroke="none" 
	d="
M595.935486,219.048782 
	C601.287415,225.582077 606.411316,231.844284 612.314453,239.058868 
	C594.775391,239.058868 578.632751,239.058868 560.716553,239.058868 
	C569.550964,228.476898 577.625122,218.805542 586.479736,208.199310 
	C589.961304,212.190521 592.834351,215.484100 595.935486,219.048782 
z"/>
<path fill="#3390AE" opacity="1.000000" stroke="none" 
	d="
M674.405090,353.966919 
	C674.426941,354.574127 674.168030,355.318390 673.634888,356.202698 
	C673.615173,355.596497 673.869751,354.850250 674.405090,353.966919 
z"/>
<path fill="#3390AE" opacity="1.000000" stroke="none" 
	d="
M679.691956,356.032196 
	C679.231323,355.671570 678.823059,355.013489 678.480957,354.056091 
	C678.946167,354.416107 679.345215,355.075439 679.691956,356.032196 
z"/>
<path fill="#4ED5FB" opacity="1.000000" stroke="none" 
	d="
M598.014160,290.733704 
	C616.106567,297.377136 626.483948,312.389740 625.599976,330.205292 
	C624.749451,347.347229 613.224792,361.622681 596.584229,366.146820 
	C580.974915,370.390564 564.155945,364.405396 554.520935,351.178162 
	C545.005066,338.114441 544.728577,320.398010 553.825134,306.583344 
	C562.674805,293.143616 579.003052,286.494598 594.712463,289.936676 
	C595.688049,290.150452 596.658264,290.388580 598.014160,290.733704 
z"/>
</svg>