<svg version="1.1" id="Layer_1" xmlns="http://www.w3.org/2000/svg" xmlns:xlink="http://www.w3.org/1999/xlink" x="0px" y="0px"
	 width="100%" viewBox="0 0 1142 597" enable-background="new 0 0 1142 597" xml:space="preserve">
<path fill="#000000" opacity="1.000000" stroke="none" 
	d="
M680.000000,598.000000 
	C453.333344,598.000000 227.166687,598.000000 1.000030,598.000000 
	C1.000020,399.000031 1.000020,200.000046 1.000010,1.000057 
	C381.666626,1.000038 762.333252,1.000038 1143.000000,1.000019 
	C1143.000000,199.999939 1143.000000,398.999878 1143.000000,597.999878 
	C988.833313,598.000000 834.666687,598.000000 680.000000,598.000000 
M300.156982,472.147369 
	C299.859955,475.461487 302.271088,474.862427 304.171021,474.865967 
	C316.170105,474.888336 328.169250,474.877533 340.168396,474.877655 
	C343.269226,474.877716 346.370087,474.877686 349.567963,474.877686 
	C349.567963,363.581696 349.567963,253.002777 349.567963,142.217224 
	C332.913452,142.217224 316.533447,142.217224 299.786926,142.217224 
	C299.786926,144.514252 299.786987,146.487778 299.786926,148.461304 
	C299.784607,214.289871 299.937531,280.119202 299.612793,345.946198 
	C299.563995,355.839539 298.465607,366.052612 295.812958,375.547913 
	C287.532898,405.186798 268.895538,425.715393 238.494919,433.057281 
	C208.026688,440.415466 180.414764,434.040344 158.378662,410.637451 
	C141.735931,392.962372 135.872147,371.013489 135.863556,347.228333 
	C135.839600,280.899811 135.855042,214.571274 135.854919,148.242737 
	C135.854919,146.292068 135.854919,144.341385 135.854919,142.220856 
	C118.930756,142.220856 102.541992,142.220856 85.810539,142.220856 
	C85.810539,143.814636 85.810486,145.119217 85.810547,146.423813 
	C85.813789,214.918854 85.751991,283.414062 85.908119,351.908722 
	C85.926262,359.869080 86.613846,367.914490 87.898369,375.772156 
	C104.323174,476.245605 211.515686,503.072906 276.734650,462.670288 
	C284.830078,457.655212 292.131897,451.359039 300.145386,445.400787 
	C300.145386,454.015747 300.145386,462.609924 300.156982,472.147369 
M387.026001,240.500000 
	C387.026001,318.431702 387.026001,396.363434 387.026001,474.449951 
	C403.185242,474.449951 418.874756,474.449951 435.185028,474.449951 
	C435.185028,464.585052 435.185028,455.112488 435.185028,445.082489 
	C485.299835,493.500946 558.333313,489.355774 603.942993,450.960876 
	C653.192383,409.502014 663.765076,340.076569 629.065308,285.124268 
	C612.401550,258.734558 588.576477,240.863693 558.618835,232.419174 
	C512.487915,219.415710 471.239044,229.324722 435.026550,262.792694 
	C435.026550,221.754181 435.026550,182.033066 435.026550,142.251022 
	C418.834381,142.251022 403.118256,142.251022 387.026001,142.251022 
	C387.026001,174.907593 387.026001,207.203796 387.026001,240.500000 
M822.416260,477.972656 
	C855.395386,471.756378 881.900024,455.210052 902.453552,428.204773 
	C890.688965,419.531372 879.327026,411.154816 867.675049,402.564423 
	C855.429382,418.588501 840.462158,430.253754 820.898438,435.215332 
	C801.368164,440.168488 782.264160,439.140320 763.737061,430.935974 
	C734.193481,417.853210 718.327515,387.319794 717.881836,368.944794 
	C783.433594,368.944794 848.973267,368.944794 913.831482,368.944794 
	C913.831482,357.580719 914.789856,346.688843 913.671570,336.014557 
	C907.671204,278.739868 866.035889,235.176254 809.580078,228.715393 
	C757.066040,222.705627 714.692017,242.033936 687.235107,287.332214 
	C659.912964,332.408081 660.281677,379.734100 689.489258,423.749786 
	C720.616760,470.658630 767.046326,485.445496 822.416260,477.972656 
M1015.872803,237.403168 
	C1005.282104,242.393570 997.380310,250.535126 989.372559,259.436890 
	C989.372559,250.432846 989.372559,241.428818 989.372559,232.474533 
	C973.067505,232.474533 957.487000,232.474533 941.755859,232.474533 
	C941.755859,313.366821 941.755859,393.942993 941.755859,474.577026 
	C957.830566,474.577026 973.574341,474.577026 989.763794,474.577026 
	C989.763794,472.481049 989.763733,470.685120 989.763733,468.889191 
	C989.764038,425.224518 989.771606,381.559845 989.759949,337.895172 
	C989.756653,325.390869 991.647461,313.327515 997.865356,302.245850 
	C1007.893127,284.374115 1023.348572,275.606171 1043.651123,275.128815 
	C1050.402710,274.970032 1057.161255,275.103760 1063.753540,275.103760 
	C1063.753540,259.780212 1063.753540,245.204117 1063.753540,230.672852 
	C1045.915894,228.720123 1029.914551,230.915054 1015.872803,237.403168 
z"/>
<path fill="#FDFDFD" opacity="1.000000" stroke="none" 
	d="
M300.151184,471.675720 
	C300.145386,462.609924 300.145386,454.015747 300.145386,445.400787 
	C292.131897,451.359039 284.830078,457.655212 276.734650,462.670288 
	C211.515686,503.072906 104.323174,476.245605 87.898369,375.772156 
	C86.613846,367.914490 85.926262,359.869080 85.908119,351.908722 
	C85.751991,283.414062 85.813789,214.918854 85.810547,146.423813 
	C85.810486,145.119217 85.810539,143.814636 85.810539,142.220856 
	C102.541992,142.220856 118.930756,142.220856 135.854919,142.220856 
	C135.854919,144.341385 135.854919,146.292068 135.854919,148.242737 
	C135.855042,214.571274 135.839600,280.899811 135.863556,347.228333 
	C135.872147,371.013489 141.735931,392.962372 158.378662,410.637451 
	C180.414764,434.040344 208.026688,440.415466 238.494919,433.057281 
	C268.895538,425.715393 287.532898,405.186798 295.812958,375.547913 
	C298.465607,366.052612 299.563995,355.839539 299.612793,345.946198 
	C299.937531,280.119202 299.784607,214.289871 299.786926,148.461304 
	C299.786987,146.487778 299.786926,144.514252 299.786926,142.217224 
	C316.533447,142.217224 332.913452,142.217224 349.567963,142.217224 
	C349.567963,253.002777 349.567963,363.581696 349.567963,474.877686 
	C346.370087,474.877686 343.269226,474.877716 340.168396,474.877655 
	C328.169250,474.877533 316.170105,474.888336 304.171021,474.865967 
	C302.271088,474.862427 299.859955,475.461487 300.151184,471.675720 
z"/>
<path fill="#FDFDFD" opacity="1.000000" stroke="none" 
	d="
M387.026001,240.000000 
	C387.026001,207.203796 387.026001,174.907593 387.026001,142.251022 
	C403.118256,142.251022 418.834381,142.251022 435.026550,142.251022 
	C435.026550,182.033066 435.026550,221.754181 435.026550,262.792694 
	C471.239044,229.324722 512.487915,219.415710 558.618835,232.419174 
	C588.576477,240.863693 612.401550,258.734558 629.065308,285.124268 
	C663.765076,340.076569 653.192383,409.502014 603.942993,450.960876 
	C558.333313,489.355774 485.299835,493.500946 435.185028,445.082489 
	C435.185028,455.112488 435.185028,464.585052 435.185028,474.449951 
	C418.874756,474.449951 403.185242,474.449951 387.026001,474.449951 
	C387.026001,396.363434 387.026001,318.431702 387.026001,240.000000 
M435.103577,341.866455 
	C435.025238,349.173492 434.336151,356.533752 434.968018,363.778870 
	C438.966797,409.630127 483.830444,444.593719 529.104126,437.404175 
	C569.352661,431.012665 596.989990,401.707306 601.329895,360.819000 
	C606.152405,315.384033 569.498047,272.393005 523.903564,270.007507 
	C479.335602,267.675751 443.375946,296.467163 435.103577,341.866455 
z"/>
<path fill="#FDFDFD" opacity="1.000000" stroke="none" 
	d="
M821.990234,478.029297 
	C767.046326,485.445496 720.616760,470.658630 689.489258,423.749786 
	C660.281677,379.734100 659.912964,332.408081 687.235107,287.332214 
	C714.692017,242.033936 757.066040,222.705627 809.580078,228.715393 
	C866.035889,235.176254 907.671204,278.739868 913.671570,336.014557 
	C914.789856,346.688843 913.831482,357.580719 913.831482,368.944794 
	C848.973267,368.944794 783.433594,368.944794 717.881836,368.944794 
	C718.327515,387.319794 734.193481,417.853210 763.737061,430.935974 
	C782.264160,439.140320 801.368164,440.168488 820.898438,435.215332 
	C840.462158,430.253754 855.429382,418.588501 867.675049,402.564423 
	C879.327026,411.154816 890.688965,419.531372 902.453552,428.204773 
	C881.900024,455.210052 855.395386,471.756378 821.990234,478.029297 
M864.576660,325.040161 
	C853.988342,289.511658 822.040588,266.654785 787.521667,269.377472 
	C745.554688,272.687592 722.557312,306.065765 718.508667,330.919342 
	C767.591309,330.919342 816.640869,330.919342 866.036133,330.919342 
	C865.589050,329.003540 865.216309,327.406006 864.576660,325.040161 
z"/>
<path fill="#FBFBFB" opacity="1.000000" stroke="none" 
	d="
M1016.207336,237.233200 
	C1029.914551,230.915054 1045.915894,228.720123 1063.753540,230.672852 
	C1063.753540,245.204117 1063.753540,259.780212 1063.753540,275.103760 
	C1057.161255,275.103760 1050.402710,274.970032 1043.651123,275.128815 
	C1023.348572,275.606171 1007.893127,284.374115 997.865356,302.245850 
	C991.647461,313.327515 989.756653,325.390869 989.759949,337.895172 
	C989.771606,381.559845 989.764038,425.224518 989.763733,468.889191 
	C989.763733,470.685120 989.763794,472.481049 989.763794,474.577026 
	C973.574341,474.577026 957.830566,474.577026 941.755859,474.577026 
	C941.755859,393.942993 941.755859,313.366821 941.755859,232.474533 
	C957.487000,232.474533 973.067505,232.474533 989.372559,232.474533 
	C989.372559,241.428818 989.372559,250.432846 989.372559,259.436890 
	C997.380310,250.535126 1005.282104,242.393570 1016.207336,237.233200 
z"/>
<path fill="#010101" opacity="1.000000" stroke="none" 
	d="
M435.172150,341.431396 
	C443.375946,296.467163 479.335602,267.675751 523.903564,270.007507 
	C569.498047,272.393005 606.152405,315.384033 601.329895,360.819000 
	C596.989990,401.707306 569.352661,431.012665 529.104126,437.404175 
	C483.830444,444.593719 438.966797,409.630127 434.968018,363.778870 
	C434.336151,356.533752 435.025238,349.173492 435.172150,341.431396 
z"/>
<path fill="#020202" opacity="1.000000" stroke="none" 
	d="
M864.710083,325.424316 
	C865.216309,327.406006 865.589050,329.003540 866.036133,330.919342 
	C816.640869,330.919342 767.591309,330.919342 718.508667,330.919342 
	C722.557312,306.065765 745.554688,272.687592 787.521667,269.377472 
	C822.040588,266.654785 853.988342,289.511658 864.710083,325.424316 
z"/>
</svg>